<svg width="355" height="64" viewBox="0 0 355 64" fill="none" xmlns="http://www.w3.org/2000/svg">
<mask id="mask0_82_5558" style="mask-type:luminance" maskUnits="userSpaceOnUse" x="26" y="23" width="18" height="18">
<path d="M43.3324 23.6689H26.6699V40.3314H43.3324V23.6689Z" fill="white"/>
</mask>
<g mask="url(#mask0_82_5558)">
<path d="M43.3298 32.0002C43.3298 32.4603 42.9599 32.8333 42.4999 32.8333H35.8298V39.4983C35.8298 39.9584 35.4599 40.3314 34.9999 40.3314C34.5399 40.3314 34.1699 39.9584 34.1699 39.4983V32.8333H27.4999C27.0399 32.8333 26.6699 32.4603 26.6699 32.0002C26.6699 31.5401 27.0399 31.1671 27.4999 31.1671H34.1699V24.5021C34.1699 24.0419 34.5399 23.6689 34.9999 23.6689C35.4599 23.6689 35.8298 24.0419 35.8298 24.5021V31.1671H42.4999C42.9599 31.1671 43.3298 31.5401 43.3298 32.0002Z" fill="white"/>
</g>
<mask id="mask1_82_5558" style="mask-type:luminance" maskUnits="userSpaceOnUse" x="73" y="22" width="20" height="20">
<path d="M92.1693 22.1729H73.1699V41.1673H92.1693V22.1729Z" fill="white"/>
</mask>
<g mask="url(#mask1_82_5558)">
<path d="M82.7596 23.4927C82.8396 23.0659 83.4995 23.0659 83.5795 23.4927C84.6795 29.2262 86.1096 30.6648 91.8496 31.7593C92.2796 31.8408 92.2796 32.5001 91.8496 32.5816C86.1096 33.6761 84.6795 35.114 83.5795 40.8472C83.4995 41.274 82.8396 41.274 82.7596 40.8472C81.6596 35.114 80.2196 33.676 74.4896 32.5816C74.0596 32.5001 74.0596 31.8408 74.4896 31.7593C80.2296 30.6647 81.6596 29.2262 82.7596 23.4927ZM77.7796 22.2085C77.9896 22.0739 78.2696 22.349 78.1296 22.5581C77.0496 24.2412 77.0496 25.1025 78.1296 26.7857C78.2696 26.9947 77.9896 27.2699 77.7796 27.1353C76.0996 26.0518 75.2396 26.0518 73.5596 27.1353C73.3496 27.2699 73.0695 26.9947 73.2095 26.7857C74.2895 25.1025 74.2895 24.2412 73.2095 22.5581C73.0695 22.349 73.3496 22.0739 73.5596 22.2085C75.2396 23.2918 76.0996 23.2918 77.7796 22.2085Z" fill="white"/>
</g>
<mask id="mask2_82_5558" style="mask-type:luminance" maskUnits="userSpaceOnUse" x="121" y="22" width="20" height="20">
<path d="M140.995 22.002H121V41.997H140.995V22.002Z" fill="white"/>
</mask>
<g mask="url(#mask2_82_5558)">
<path d="M140.75 40.5747L135.07 34.8909C136.17 33.5314 136.83 31.802 136.83 29.9166C136.83 25.5455 133.29 22.002 128.92 22.002C124.55 22.002 121 25.5455 121 29.9166C121 34.2878 124.55 37.8313 128.92 37.8313C130.8 37.8313 132.53 37.1696 133.89 36.0691L139.58 41.7529C139.9 42.0783 140.43 42.0783 140.75 41.7529C141.08 41.4276 141.08 40.9001 140.75 40.5747ZM128.92 36.1651C125.47 36.1651 122.67 33.3675 122.67 29.9166C122.67 26.4657 125.47 23.6682 128.92 23.6682C132.37 23.6682 135.17 26.4657 135.17 29.9166C135.17 33.3675 132.37 36.1651 128.92 36.1651Z" fill="white"/>
</g>
<mask id="mask3_82_5558" style="mask-type:luminance" maskUnits="userSpaceOnUse" x="172" y="22" width="14" height="20">
<path d="M185.66 22.4189H172.33V41.5808H185.66V22.4189Z" fill="white"/>
</mask>
<g mask="url(#mask3_82_5558)">
<path d="M179.83 40.3311C179.83 41.0213 179.27 41.5808 178.58 41.5808C177.89 41.5808 177.33 41.0213 177.33 40.3311C177.33 39.6409 177.89 39.0814 178.58 39.0814C179.27 39.0814 179.83 39.6409 179.83 40.3311ZM179.21 22.4189C174.3 22.4189 172.48 26.4967 172.4 26.67C172.22 27.091 172.41 27.5784 172.83 27.7627C173.25 27.9453 173.75 27.7553 173.93 27.3355C173.99 27.2029 175.42 24.0852 179.21 24.0852C182.5 24.0852 184 25.6506 184 27.1053C184 28.6043 183.15 29.1519 181.64 29.9899C179.91 30.9577 177.75 32.1618 177.75 35.8531C177.75 36.3132 178.12 36.6862 178.58 36.6862C179.04 36.6862 179.42 36.3132 179.42 35.8531C179.42 33.1401 180.83 32.355 182.46 31.4454C183.96 30.6066 185.66 29.6559 185.66 27.1053C185.66 24.8484 183.64 22.4189 179.21 22.4189Z" fill="white"/>
</g>
<path d="M235.01 31.8024L234.48 28.0744C233.95 24.3513 230.76 21.5859 227 21.5859C223.24 21.5859 220.05 24.3513 219.52 28.0744L218.99 31.8024C218.75 33.4307 217 33.0057 217 34.7853V37.4153C217 37.8754 217.38 38.2484 217.84 38.2484H222.83C222.83 40.549 224.7 42.4141 227 42.4141C229.3 42.4141 231.17 40.549 231.17 38.2484H236.16C236.62 38.2484 237 37.8754 237 37.4153V34.7853C237 33.0142 235.24 33.4134 235.01 31.8024ZM227 40.7478C225.62 40.7478 224.5 39.6267 224.5 38.2484H229.5C229.5 39.6267 228.38 40.7478 227 40.7478ZM218.67 36.5822C218.67 36.5822 218.67 34.7526 218.67 34.74C218.73 34.6914 218.83 34.6224 218.91 34.5685C219.44 34.2095 220.42 33.5412 220.64 32.0382L221.17 28.3099C221.58 25.4265 224.09 23.2522 227 23.2522C229.91 23.2522 232.42 25.4265 232.83 28.3101L233.36 32.038C233.58 33.5273 234.55 34.1985 235.08 34.5592C235.16 34.6159 235.27 34.6889 235.33 34.7392C235.33 34.752 235.33 36.5822 235.33 36.5822H218.67Z" fill="white"/>
<mask id="mask4_82_5558" style="mask-type:luminance" maskUnits="userSpaceOnUse" x="266" y="23" width="18" height="18">
<path d="M283.332 23.6689H266.67V40.3314H283.332V23.6689Z" fill="white"/>
</mask>
<g mask="url(#mask4_82_5558)">
<path d="M270 25.3352C270 26.2555 269.26 27.0014 268.33 27.0014C267.41 27.0014 266.67 26.2555 266.67 25.3352C266.67 24.415 267.41 23.6689 268.33 23.6689C269.26 23.6689 270 24.415 270 25.3352ZM275 36.9989C274.08 36.9989 273.33 37.745 273.33 38.6652C273.33 39.5855 274.08 40.3314 275 40.3314C275.92 40.3314 276.67 39.5855 276.67 38.6652C276.67 37.745 275.92 36.9989 275 36.9989ZM268.33 36.9989C267.41 36.9989 266.67 37.745 266.67 38.6652C266.67 39.5855 267.41 40.3314 268.33 40.3314C269.26 40.3314 270 39.5855 270 38.6652C270 37.745 269.26 36.9989 268.33 36.9989ZM281.66 27.0014C282.59 27.0014 283.33 26.2555 283.33 25.3352C283.33 24.415 282.59 23.6689 281.66 23.6689C280.74 23.6689 280 24.415 280 25.3352C280 26.2555 280.74 27.0014 281.66 27.0014ZM268.33 30.3339C267.41 30.3339 266.67 31.08 266.67 32.0002C266.67 32.9205 267.41 33.6664 268.33 33.6664C269.26 33.6664 270 32.9205 270 32.0002C270 31.08 269.26 30.3339 268.33 30.3339ZM275 30.3339C274.08 30.3339 273.33 31.08 273.33 32.0002C273.33 32.9205 274.08 33.6664 275 33.6664C275.92 33.6664 276.67 32.9205 276.67 32.0002C276.67 31.08 275.92 30.3339 275 30.3339ZM281.66 36.9989C280.74 36.9989 280 37.745 280 38.6652C280 39.5855 280.74 40.3314 281.66 40.3314C282.59 40.3314 283.33 39.5855 283.33 38.6652C283.33 37.745 282.59 36.9989 281.66 36.9989ZM281.66 30.3339C280.74 30.3339 280 31.08 280 32.0002C280 32.9205 280.74 33.6664 281.66 33.6664C282.59 33.6664 283.33 32.9205 283.33 32.0002C283.33 31.08 282.59 30.3339 281.66 30.3339ZM275 23.6689C274.08 23.6689 273.33 24.415 273.33 25.3352C273.33 26.2555 274.08 27.0014 275 27.0014C275.92 27.0014 276.67 26.2555 276.67 25.3352C276.67 24.415 275.92 23.6689 275 23.6689Z" fill="white"/>
</g>
<path d="M303 32C303 20.9543 311.95 12 323 12C334.05 12 343 20.9543 343 32C343 43.0457 334.05 52 323 52C311.95 52 303 43.0457 303 32Z" fill="#A4EEFE"/>
<path d="M313.79 38.5001H311.4L315.75 26.1365H318.51L322.87 38.5001H320.48L317.18 28.672H317.08L313.79 38.5001ZM313.87 33.6524H320.39V35.4514H313.87V33.6524ZM326.37 26.1365L329.1 30.6642H329.19L331.93 26.1365H334.48L330.67 32.3183L334.54 38.5001H331.95L329.19 34.0026H329.1L326.34 38.5001H323.76L327.67 32.3183L323.81 26.1365H326.37Z" fill="#0A353E"/>
</svg>
